PathFileType	4	(X/Y/Z)	Run_300 02
DataRate	CameraRate	NumFrames	NumMarkers	Units	OrigDataRate	OrigDataStartFrame	OrigNumFrames
100	100	5	42	mm	100	86	128
Frame#	Time	RASI			LPSI			RPSI			RTH1			RTH2			RTH3			LTH1			LTH2			LTH3			RTB1			RTB2			RTB3			LTB1			LTB2			LTB3			RCAL			RTOE			RMT5			LCAL			LTOE			LMT5			LACR			RACR			CLAV			C7			RUA1			RUA2			RUA3			RLEL			RMEL			LUA1			LUA2			LUA3			LLEL			LMEL			RFAsuperior			RFAradius			RFAulna			LFAsuperior			LFAradius			LFAulna			LASI			
		X1	Y1	Z1	X2	Y2	Z2	X3	Y3	Z3	X4	Y4	Z4	X5	Y5	Z5	X6	Y6	Z6	X7	Y7	Z7	X8	Y8	Z8	X9	Y9	Z9	X10	Y10	Z10	X11	Y11	Z11	X12	Y12	Z12	X13	Y13	Z13	X14	Y14	Z14	X15	Y15	Z15	X16	Y16	Z16	X17	Y17	Z17	X18	Y18	Z18	X19	Y19	Z19	X20	Y20	Z20	X21	Y21	Z21	X22	Y22	Z22	X23	Y23	Z23	X24	Y24	Z24	X25	Y25	Z25	X26	Y26	Z26	X27	Y27	Z27	X28	Y28	Z28	X29	Y29	Z29	X30	Y30	Z30	X31	Y31	Z31	X32	Y32	Z32	X33	Y33	Z33	X34	Y34	Z34	X35	Y35	Z35	X36	Y36	Z36	X37	Y37	Z37	X38	Y38	Z38	X39	Y39	Z39	X40	Y40	Z40	X41	Y41	Z41	X42	Y42	Z42	

82	1.33	1002.620256	1018.610664	-213.696233	866.408309	1065.108535	-419.96732	850.15291	1063.351557	-308.855335	938.416821	901.067929	-168.053317	940.688127	747.316407	-202.515947	1038.168076	617.339571	-207.281143	992.043691	871.881454	-513.283967	933.762392	714.394829	-481.894512	1003.507292	589.442435	-485.088143	1105.558445	375.528657	-290.387195	1023.048133	343.640313	-220.681907	1025.736599	201.756703	-310.356105	946.768876	404.003425	-432.259406	822.013634	465.144868	-482.686039	730.315289	379.489665	-437.084512	871.0536049999999	99.925586	-311.870003	1111.345906	69.11123600000001	-338.940788	1066.347828	50.059594	-248.015496	576.41774	471.731577	-405.812187	598.944082	236.115204	-429.412439	555.681341	288.592384	-518.73238	997.615815	1501.744506	-490.618392	1003.0371	1466.292386	-164.68576	1062.338287	1443.540418	-295.511369	945.216332	1515.772164	-331.589086	886.2127	1375.015874	-102.729857	924.148518	1310.897993	-76.093605	847.367103	1243.995365	-37.902006	808.127845	1190.562466	-13.603752	807.581275	1164.883122	-99.098035	896.890567	1409.274294	-545.292266	922.9121	1334.662543	-578.138861	848.143911	1276.85626	-607.218902	827.017679	1214.007145	-631.223044	801.299716	1193.962521	-547.337292	892.732345	1119.051073	-14.299725	1041.388783	1066.398397	-106.058987	1011.031739	1019.538887	-66.187145	882.450951	1147.410783	-621.451949	1033.903731	1106.878831	-510.648242	1019.917765	1050.84086	-554.231504	1026.50464	999.680934	-474.884529	
83	1.34	1000.933519	1015.918453	-213.279275	862.855566	1062.967919	-418.696846	847.790032	1061.262098	-307.22045	936.463681	898.298927	-168.494858	934.8741649999999	744.670507	-202.961987	1029.040079	612.132276	-208.315122	988.787731	871.111414	-515.146812	940.720916	712.152695	-482.941988	1017.727206	590.61522	-486.55666	1088.536651	368.482725	-292.697719	1003.967483	339.314415	-221.941282	1000.246987	197.990791	-311.040149	969.209672	404.856555	-432.490759	842.959701	462.813539	-483.652717	753.287821	376.317858	-436.640868	841.320136	100.617016	-311.952118	1081.778054	69.41679999999999	-340.975474	1036.345767	49.862647	-248.073225	595.491278	464.970907	-406.195328	627.587292	230.348133	-428.023259	583.704862	280.622864	-518.45997	996.144456	1498.366159	-490.178753	1004.932111	1461.909191	-164.419512	1062.244585	1439.744818	-295.782965	944.77747	1512.776407	-331.053634	893.762447	1365.952449	-102.803402	932.241068	1303.906507	-74.846633	859.655333	1233.091102	-35.207794	824.151468	1177.791329	-9.503307	821.673166	1151.965903	-94.90350599999999	894.0843180000001	1406.330399	-543.862674	918.660444	1331.211299	-575.994739	842.389844	1274.495204	-603.076181	820.906968	1211.613504	-627.336991	796.747711	1191.448345	-543.0381159999999	910.772495	1108.053556	-13.037063	1056.534929	1055.212434	-108.704422	1027.250844	1008.691408	-67.45164699999999	873.816887	1141.737004	-619.948447	1024.122246	1088.503036	-512.718923	1006.312413	1034.947671	-557.83599	1022.641786	997.741212	-474.941508	
84	1.35	1000.006744	1014.665347	-213.852462	859.52801	1062.25996	-417.387563	846.099468	1061.128536	-305.377026	934.482081	897.008007	-168.901368	927.942631	743.509204	-202.550577	1017.932903	608.021747	-208.999463	985.430643	870.9848040000001	-516.92358	947.946219	711.701486	-484.546182	1031.777286	593.845808	-487.78737	1069.529588	363.227716	-295.187675	983.710881	336.255977	-222.932763	974.144666	195.560177	-311.611131	991.6659	407.399699	-432.238052	863.765412	460.516194	-484.481681	776.612988	372.500085	-435.925598	811.618982	101.517898	-312.062834	1052.352166	70.634772	-343.722581	1006.334158	49.974032	-248.099648	614.367975	455.883619	-406.852335	658.374092	223.035963	-425.723086	612.3519250000001	269.859697	-517.073007	994.556988	1496.464634	-489.639796	1007.628169	1459.057706	-164.249252	1062.261319	1437.468201	-296.106948	944.052845	1511.124675	-330.137614	900.833971	1359.294721	-103.451596	940.6891409999999	1299.320545	-74.015258	872.276329	1225.042119	-33.087332	840.570381	1168.060297	-6.077637	835.828382	1141.868589	-91.430813	890.842122	1405.42965	-542.591732	914.08413	1329.594259	-574.133386	835.9643610000001	1274.58966	-599.201938	813.843873	1211.845989	-624.208802	791.2966290000001	1191.358105	-539.259153	929.271783	1100.512646	-12.742473	1072.202692	1048.35833	-112.764285	1044.429479	1001.939283	-69.964214	864.4635919999999	1139.189076	-618.7756450000001	1013.956942	1075.373032	-515.55807	992.114163	1024.1539	-561.8457529999999	1018.998911	997.226912	-474.955803	
85	1.36	999.501302	1014.55791	-215.247164	856.522102	1063.205283	-416.197213	844.878344	1062.59422	-303.934259	932.387247	897.105592	-169.247997	920.144966	743.654402	-201.852904	1005.320795	605.243468	-209.36784	983.043132	871.845559	-518.412743	955.412373	713.170709	-486.79843	1045.492022	599.1655490000001	-488.923474	1048.440692	359.451062	-296.777746	962.063869	334.633758	-223.604969	947.588704	194.36638	-311.888672	1013.766698	411.778056	-431.578344	884.105728	458.630043	-485.172476	800.197862	368.120812	-434.906925	781.982717	102.637196	-312.202373	1022.80076	71.47900300000001	-345.397542	976.261038	49.992865	-248.093181	633.386444	444.517301	-407.579491	690.698146	214.368219	-422.833713	641.600054	256.739704	-514.65948	992.611937	1496.040783	-489.198587	1010.868845	1458.127669	-164.266374	1062.401181	1437.025515	-296.570574	943.583846	1511.331236	-328.732814	907.433945	1355.364589	-102.955064	949.679097	1296.735277	-74.154388	884.8039690000001	1219.977067	-31.778206	856.316239	1161.74082	-3.73049	849.6024629999999	1135.13301	-89.186926	886.8211	1406.671938	-541.055115	908.647237	1330.23249	-572.838147	828.6435750000001	1277.109847	-596.0566700000001	805.325164	1214.671465	-621.961826	784.436806	1193.917516	-536.217301	946.689541	1096.216899	-13.396281	1087.683056	1047.259621	-117.998408	1062.030217	1000.330283	-74.020732	853.692562	1139.579798	-617.970149	1004.058781	1069.237041	-519.316057	977.943388	1019.617823	-565.399906	1015.679821	998.364931	-475.083022	
86	1.37	999.2678069999999	1015.526137	-216.919959	854.205611	1065.81995	-415.151295	844.04308	1065.256088	-303.03689	930.158098	898.287586	-169.63593	911.560636	745.008998	-201.248734	991.1634299999999	603.64739	-209.681267	982.011132	874.447262	-519.619599	962.711471	716.706034	-489.433713	1058.574425	606.64018	-490.050182	1025.385607	356.363947	-297.203003	938.6527610000001	333.86008	-224.117654	920.403783	193.863223	-311.917688	1035.19387	417.909303	-430.760539	903.542368	457.419944	-485.549243	824.090572	363.351283	-433.810268	752.341324	103.914419	-312.356491	992.932779	71.47936300000001	-345.505245	946.079443	49.826532	-248.00519	652.707554	430.910007	-408.116963	724.364812	204.595108	-419.382134	671.968428	241.766997	-511.424653	990.224038	1497.307543	-488.976669	1014.23752	1459.364738	-164.652431	1062.668069	1438.457145	-297.330386	943.507231	1513.344852	-327.32104	914.061286	1354.578123	-100.764623	958.762204	1296.233813	-75.294967	896.6426290000001	1217.939492	-31.292287	870.592274	1158.723877	-2.660271	862.400171	1132.058873	-88.257456	882.084714	1410.019633	-539.151776	902.140564	1333.429524	-572.135238	820.46106	1282.088207	-593.883692	795.416148	1220.027444	-620.239868	776.1836060000001	1199.238399	-533.8141460000001	962.384626	1095.41966	-15.117781	1102.378993	1052.535262	-123.989065	1079.500664	1004.330857	-79.609184	841.690078	1143.01292	-617.3284190000001	994.766377	1070.555444	-523.70327	964.538093	1021.294188	-567.494312	1013.055097	1001.175716	-475.353423	
